<?xml version="1.0" encoding="utf-8"?>
<!-- Generator: Adobe Illustrator 23.0.3, SVG Export Plug-In . SVG Version: 6.00 Build 0)  -->
<svg version="1.1" id="Layer_1" xmlns="http://www.w3.org/2000/svg" xmlns:xlink="http://www.w3.org/1999/xlink" x="0px" y="0px"
	 viewBox="0 0 1000 1000" style="enable-background:new 0 0 1000 1000;" xml:space="preserve">
<style type="text/css">
	.st0{fill:#005288;}
	.st1{fill:#A7A9AC;}
</style>
<title>B5</title>
<polygon class="st0" points="440.6,0 428.7,0 324,0 324,418.3 428.7,418.3 440.6,418.3 603.2,418.3 603.2,314.1 440.6,314.1 
	440.6,104.2 1000,104.2 1000,0 "/>
<path class="st0" d="M603.2,314.1v104.2c145.8,1.8,263.3,108,263.3,238.6S749,893.9,603.2,895.7l0,0H118.6V1000h484.6l0,0
	c210.2-1.8,379.9-154.7,379.9-343S813.4,315.9,603.2,314.1z"/>
<rect x="541.8" y="314.1" class="st0" width="64.3" height="104.2"/>
<path class="st1" d="M497.6,500c69.9-52.4,111.1-134.8,111-222.2C608.6,124.4,484.3,0,330.8,0H0v1000h330.8
	c153.4,0,277.8-124.4,277.8-277.8C608.7,634.8,567.6,552.4,497.6,500z M111.2,111.2h219.6c92,0.7,166,75.9,165.3,167.9
	c-0.7,91-74.3,164.6-165.3,165.3H111.2V111.2z M330.8,888.8H111.2V555.6h219.6c92,0.7,166,75.9,165.3,167.9
	C495.4,814.5,421.8,888.1,330.8,888.8L330.8,888.8z"/>
</svg>
