<svg id="Layer_1" data-name="Layer 1" xmlns="http://www.w3.org/2000/svg" viewBox="0 0 1000 1000"><defs><style>.cls-1{fill:#005288;}.cls-2{fill:#a7a9ac;}</style></defs><title>B5</title><polygon class="cls-1" points="440.62 0 428.71 0 324 0 324 418.3 428.71 418.3 440.62 418.3 603.22 418.3 603.22 314.07 440.62 314.07 440.62 104.23 1000 104.23 1000 0 440.62 0"/><path class="cls-1" d="M603.22,314.11V418.35C749,420.15,866.54,526.31,866.54,657S749,893.92,603.22,895.72v0H118.59V1000H603.22v0C813.39,998.15,983.15,845.32,983.15,657S813.39,315.92,603.22,314.11Z"/><path class="cls-2" d="M497.6,500a277.36,277.36,0,0,0,111-222.19C608.64,124.38,484.26,0,330.83,0H0V1000H330.83c153.43,0,277.81-124.38,277.81-277.81A277.36,277.36,0,0,0,497.6,500ZM111.23,111.23h219.6a166.58,166.58,0,0,1,0,333.15H111.23Zm219.6,777.54H111.23V555.62h219.6a166.58,166.58,0,0,1,0,333.15Z"/></svg>